<svg height="512" viewBox="0 0 64 64" width="512" xmlns="http://www.w3.org/2000/svg"><g id="Crypto_vault" data-name="Crypto vault"><path d="m52 31h3v2h-3z"/><path d="m58 14a4 4 0 0 0 -3.858 3h-3.142v2h3.142a3.993 3.993 0 1 0 3.858-5zm0 6a2 2 0 1 1 2-2 2 2 0 0 1 -2 2z"/><path d="m32 10a4 4 0 1 1 4-4 4 4 0 0 1 -4 4zm0-6a2 2 0 1 0 2 2 2 2 0 0 0 -2-2z"/><path d="m58 10a4 4 0 1 1 4-4 4 4 0 0 1 -4 4zm0-6a2 2 0 1 0 2 2 2 2 0 0 0 -2-2z"/><path d="m58 42a4 4 0 0 0 -3.858 3h-3.142v2h3.142a3.993 3.993 0 1 0 3.858-5zm0 6a2 2 0 1 1 2-2 2 2 0 0 1 -2 2z"/><path d="m42 17h-20a5.006 5.006 0 0 0 -5 5v20a5.006 5.006 0 0 0 5 5h20a5.006 5.006 0 0 0 5-5v-20a5.006 5.006 0 0 0 -5-5zm3 25a3 3 0 0 1 -3 3h-20a3 3 0 0 1 -3-3v-20a3 3 0 0 1 3-3h20a3 3 0 0 1 3 3z"/><path d="m40.45 24.965 1.257-1.258a1 1 0 0 0 -1.414-1.414l-1.258 1.257a10.979 10.979 0 0 0 -14.07 0l-1.258-1.257a1 1 0 0 0 -1.414 1.414l1.257 1.258a10.979 10.979 0 0 0 0 14.07l-2.257 2.258a1 1 0 1 0 1.414 1.414l2.258-2.257a10.979 10.979 0 0 0 14.07 0l1.258 1.257a1 1 0 0 0 1.414-1.414l-1.257-1.258a10.979 10.979 0 0 0 0-14.07zm-8.45-1.965a8.923 8.923 0 0 1 5.614 1.972l-2.139 2.139a5.986 5.986 0 0 0 -6.949 0l-2.14-2.14a8.923 8.923 0 0 1 5.614-1.971zm4 9a3.992 3.992 0 0 1 -.563 2.023l-.737-.737a2.913 2.913 0 0 0 0-2.573l.736-.736a4 4 0 0 1 .564 2.023zm-8 0a3.992 3.992 0 0 1 .563-2.023l.737.737a2.913 2.913 0 0 0 0 2.573l-.735.735a3.981 3.981 0 0 1 -.565-2.022zm4.694.712a.991.991 0 0 1 -1.406-.018.98.98 0 0 1 0-1.388l.012-.006.007-.011a.991.991 0 0 1 1.406.018.98.98 0 0 1 0 1.388l-.013.005-.007.011zm.581-3.4a3.13 3.13 0 0 0 -2.55 0l-.747-.747a3.911 3.911 0 0 1 4.045 0zm-2.561 5.388a2.906 2.906 0 0 0 2.572 0l.736.736a3.911 3.911 0 0 1 -4.045 0zm-7.714-2.7a8.923 8.923 0 0 1 1.972-5.614l2.139 2.139a5.986 5.986 0 0 0 0 6.949l-2.14 2.14a8.923 8.923 0 0 1 -1.971-5.614zm9 9a8.923 8.923 0 0 1 -5.614-1.972l2.139-2.139a5.986 5.986 0 0 0 6.949 0l2.14 2.14a8.923 8.923 0 0 1 -5.614 1.971zm4.889-5.525a5.99 5.99 0 0 0 0-6.95l2.139-2.139a8.977 8.977 0 0 1 0 11.228z"/><path d="m48 5h4v2h-4z"/><path d="m38 5h4v2h-4z"/><path d="m44 5h2v2h-2z"/><path d="m6 10a4 4 0 1 1 4-4 4 4 0 0 1 -4 4zm0-6a2 2 0 1 0 2 2 2 2 0 0 0 -2-2z"/><path d="m12 5h4v2h-4z"/><path d="m22 5h4v2h-4z"/><path d="m18 5h2v2h-2z"/><path d="m32 62a4 4 0 1 1 4-4 4 4 0 0 1 -4 4zm0-6a2 2 0 1 0 2 2 2 2 0 0 0 -2-2z"/><path d="m58 62a4 4 0 1 1 4-4 4 4 0 0 1 -4 4zm0-6a2 2 0 1 0 2 2 2 2 0 0 0 -2-2z"/><path d="m48 57h4v2h-4z"/><path d="m38 57h4v2h-4z"/><path d="m44 57h2v2h-2z"/><path d="m6 62a4 4 0 1 1 4-4 4 4 0 0 1 -4 4zm0-6a2 2 0 1 0 2 2 2 2 0 0 0 -2-2z"/><path d="m12 57h4v2h-4z"/><path d="m22 57h4v2h-4z"/><path d="m18 57h2v2h-2z"/><path d="m47 45h2v2h-2z"/><path d="m47 17h2v2h-2z"/><path d="m48 31h2v2h-2z"/><path d="m9 31h3v2h-3z"/><path d="m13 17h-3.142a4 4 0 1 0 0 2h3.142zm-7 3a2 2 0 1 1 2-2 2 2 0 0 1 -2 2z"/><path d="m13 45h-3.142a4 4 0 1 0 0 2h3.142zm-7 3a2 2 0 1 1 2-2 2 2 0 0 1 -2 2z"/><path d="m15 45h2v2h-2z"/><path d="m15 17h2v2h-2z"/><path d="m14 31h2v2h-2z"/><path d="m57 31h5v2h-5z"/><path d="m2 31h5v2h-5z"/></g></svg>