<svg height="512" viewBox="0 0 64 64" width="512" xmlns="http://www.w3.org/2000/svg"><g id="Fill_Outline" data-name="Fill Outline"><g id="Colors"><g><path d="m3 22h6v8h-6z" fill="#f9e109"/><path d="m3 9v4h4a2 2 0 0 1 2 2v40h4v-40a6 6 0 0 0 -6-6z" fill="#d0d8da"/><path d="m13 19h48a0 0 0 0 1 0 0v24a4 4 0 0 1 -4 4h-44a0 0 0 0 1 0 0v-28a0 0 0 0 1 0 0z" fill="#d0d8da"/><path d="m27 19v20a8 8 0 0 1 -8-8v-12h-6v28h44a4 4 0 0 0 4-4v-24z" fill="#93999a"/><g><rect fill="#57b7eb" height="28" rx="4" width="32" x="29" y="15"/><path d="m52 36a16 16 0 0 1 -16-16v-5h-3a4 4 0 0 0 -4 4v20a4 4 0 0 0 4 4h24a4 4 0 0 0 4-4v-3z" fill="#4891d3"/><circle cx="47" cy="29" fill="#f9e109" r="10"/><circle cx="47" cy="29" fill="#e59730" r="2"/><g fill="#fcbc04"><path d="m29 23h4v4h-4z"/><path d="m29 31h4v4h-4z"/><path d="m45 22a10 10 0 0 1 9.193 13.937 10 10 0 1 0 -16.385-10.874 9.959 9.959 0 0 1 7.192-3.063z"/></g><path d="m30 23h-1v4h4v-1a3 3 0 0 1 -3-3z" fill="#e59730"/><path d="m30 31h-1v4h4v-1a3 3 0 0 1 -3-3z" fill="#e59730"/></g><g><path d="m17 24h4v4h-4z" fill="#f9e109"/><path d="m17 32h4v10h-4z" fill="#f9e109"/><g fill="#fcbc04"><path d="m17 24h2v4h-2z"/><path d="m17 42h4v-5.721a7.958 7.958 0 0 1 -1.931-4.279h-2.069z"/></g></g><path d="m19 47h16v4h-16z" fill="#f9e109"/><path d="m39 47h12v4h-12z" fill="#f9e109"/><path d="m5 42h4v6h-4z" fill="#f9e109"/><g fill="#fcbc04"><path d="m39 47v2h8a2 2 0 0 1 2 2h2v-4z"/><path d="m19 47v2h12a2 2 0 0 1 2 2h2v-4z"/><path d="m7 42v2a2 2 0 0 1 -2 2v2h4v-6z"/><path d="m7 22v3a3 3 0 0 1 -3 3h-1v2h6v-8z"/></g><path d="m11 47v-32a4 4 0 0 0 -4-4 2 2 0 0 1 -2-2h-2v4h4a2 2 0 0 1 2 2v40h4v-6a2 2 0 0 1 -2-2z" fill="#93999a"/><path d="m53 35a15.99 15.99 0 0 1 -14.971-10.4 9.988 9.988 0 0 0 16.957 10.4z" fill="#fcbc04"/></g></g><g id="Outline_copy" data-name="Outline copy"><g fill="#1f2d51"><path d="m47 18a11 11 0 1 0 11 11 11.013 11.013 0 0 0 -11-11zm-8.967 10.356a8.926 8.926 0 0 1 1.637-4.556 10.007 10.007 0 0 0 4.488 4.287c-.024.073-.05.144-.068.22a7.976 7.976 0 0 1 -6.057.049zm8.967-.356a1 1 0 1 1 -1 1 1 1 0 0 1 1-1zm.916-1.842c-.073-.023-.144-.05-.22-.068a7.976 7.976 0 0 1 -.052-6.057 8.926 8.926 0 0 1 4.556 1.637 10.007 10.007 0 0 0 -4.284 4.488zm-2.278.184c-.068.035-.136.069-.2.109a7.979 7.979 0 0 1 -4.323-4.245 8.967 8.967 0 0 1 4.382-2.07 10.005 10.005 0 0 0 .141 6.206zm.446 5.5c.073.023.144.05.22.068a7.976 7.976 0 0 1 .052 6.057 8.926 8.926 0 0 1 -4.556-1.637 10.007 10.007 0 0 0 4.284-4.488zm2.278-.184c.068-.035.136-.069.2-.109a7.979 7.979 0 0 1 4.323 4.245 8.967 8.967 0 0 1 -4.382 2.07 10.005 10.005 0 0 0 -.141-6.206zm1.48-1.742c.024-.073.05-.144.068-.22a7.976 7.976 0 0 1 6.057-.052 8.926 8.926 0 0 1 -1.637 4.556 10.007 10.007 0 0 0 -4.488-4.284zm-.184-2.278c-.035-.068-.07-.136-.109-.2a7.977 7.977 0 0 1 4.245-4.322 8.963 8.963 0 0 1 2.07 4.381 10.005 10.005 0 0 0 -6.206.141zm-11.522 2.862a9.835 9.835 0 0 0 6.206-.142c.035.068.07.136.109.2a7.977 7.977 0 0 1 -4.245 4.322 8.963 8.963 0 0 1 -2.07-4.38z"/><circle cx="57" cy="39" r="1"/><circle cx="57" cy="19" r="1"/><circle cx="33" cy="39" r="1"/><circle cx="33" cy="19" r="1"/><path d="m62 19a5.006 5.006 0 0 0 -5-5h-9a1 1 0 0 0 0 2h9a3 3 0 0 1 3 3v20a3 3 0 0 1 -3 3h-16a1 1 0 0 0 0 2h16a4.948 4.948 0 0 0 3-1.026v.026a3 3 0 0 1 -3 3h-43v-26h11a1 1 0 0 0 0-2h-11v-3a7.008 7.008 0 0 0 -7-7h-4a1 1 0 0 0 -1 1v4a1 1 0 0 0 1 1h4a1 1 0 0 1 1 1v2h-3a1 1 0 0 0 0 2h3v2h-5a1 1 0 0 0 -1 1v8a1 1 0 0 0 1 1h5v2h-3a1 1 0 0 0 0 2h3v2h-2a1 1 0 0 0 0 2h2v2h-3a1 1 0 0 0 -1 1v6a1 1 0 0 0 1 1h3v2h-2a1 1 0 0 0 0 2h2v2a1 1 0 0 0 1 1h4a1 1 0 0 0 1-1v-7h4v3a1 1 0 0 0 1 1h16a1 1 0 0 0 1-1v-3h2v3a1 1 0 0 0 1 1h12a1 1 0 0 0 1-1v-3h5a5.006 5.006 0 0 0 5-5zm-58 10v-6h4v6zm2 18v-4h2v4zm6 7h-2v-39a3 3 0 0 0 -3-3h-3v-2h3a5.006 5.006 0 0 1 5 5zm34-6v2h-2v-2zm-18 0h2v2h-2zm-2 2h-2v-2h2zm-6-2h2v2h-2zm14 2h-2v-2h2zm6-2h2v2h-2zm10 2h-2v-2h2z"/><path d="m33 44h4a1 1 0 0 0 0-2h-4a3 3 0 0 1 -3-3v-3h3a1 1 0 0 0 1-1v-4a1 1 0 0 0 -1-1h-3v-2h3a1 1 0 0 0 1-1v-4a1 1 0 0 0 -1-1h-3v-3a3 3 0 0 1 3-3h11a1 1 0 0 0 0-2h-11a5.006 5.006 0 0 0 -5 5v20a5.006 5.006 0 0 0 5 5zm-1-12v2h-2v-2zm0-8v2h-2v-2z"/><path d="m22 24a1 1 0 0 0 -1-1h-4a1 1 0 0 0 -1 1v4a1 1 0 0 0 1 1h4a1 1 0 0 0 1-1zm-2 3h-2v-2h2z"/><path d="m21 31h-4a1 1 0 0 0 -1 1v10a1 1 0 0 0 1 1h4a1 1 0 0 0 1-1v-10a1 1 0 0 0 -1-1zm-1 10h-2v-8h2z"/><path d="m26 29a1 1 0 0 0 -2 0v7a1 1 0 0 0 2 0z"/><path d="m25 39a1 1 0 0 0 -1 1v2a1 1 0 0 0 2 0v-2a1 1 0 0 0 -1-1z"/><circle cx="25" cy="25" r="1"/></g></g></g></svg>