<svg height="512" viewBox="0 0 64 64" width="512" xmlns="http://www.w3.org/2000/svg"><g id="Fill_Outline" data-name="Fill Outline"><g id="Colors"><g><path d="m8 27h48v34h-48z" fill="#d0d8da"/><path d="m56 30v-3h-48v34h48v-6h-22a16 16 0 0 1 -16-16v-6a3 3 0 0 1 3-3z" fill="#93999a"/><path d="m56 27h-48l-5-20h58z" fill="#57b7eb"/><path d="m26 49h12v8h-12z" fill="#57b7eb"/><path d="m48 53h4v4h-4z" fill="#c4f236"/><path d="m16 7h-13l4 16h25z" fill="#4891d3"/><path d="m57 23-18-16h-6l18 16z" fill="#4891d3"/><g><path d="m22 41h20v4h-20z" fill="#57b7eb"/><path d="m30 33h4v4h-4z" fill="#57b7eb"/><path d="m30 37h4v4h-4z" fill="#57b7eb"/><path d="m34 33h4v4h-4z" fill="#57b7eb"/><path d="m34 37h4v4h-4z" fill="#57b7eb"/><path d="m38 33h4v4h-4z" fill="#57b7eb"/><path d="m38 37h4v4h-4z" fill="#57b7eb"/><path d="m18 33h4v4h-4z" fill="#57b7eb"/><path d="m18 37h4v4h-4z" fill="#57b7eb"/><path d="m22 33h4v4h-4z" fill="#57b7eb"/><path d="m22 37h4v4h-4z" fill="#57b7eb"/><path d="m26 33h4v4h-4z" fill="#57b7eb"/><path d="m26 37h4v4h-4z" fill="#57b7eb"/><path d="m14 33h4v4h-4z" fill="#4891d3"/><path d="m14 37h4v4h-4z" fill="#4891d3"/><path d="m42 37h8v4h-8z" fill="#57b7eb"/><path d="m42 33h4v4h-4z" fill="#57b7eb"/><path d="m46 33h4v4h-4z" fill="#57b7eb"/><path d="m42 41h4v4h-4z" fill="#57b7eb"/><path d="m46 41h4v4h-4z" fill="#57b7eb"/><path d="m18 41h4v4h-4z" fill="#57b7eb"/><g fill="#4891d3"><path d="m14 41h4v4h-4z"/><path d="m49 36a2 2 0 0 1 -2-2v-1h-1v4h4v-1z"/><path d="m45 36a2 2 0 0 1 -2-2v-1h-1v4h4v-1z"/><path d="m41 36a2 2 0 0 1 -2-2v-1h-1v4h4v-1z"/><path d="m37 36a2 2 0 0 1 -2-2v-1h-1v4h4v-1z"/><path d="m33 36a2 2 0 0 1 -2-2v-1h-1v4h4v-1z"/><path d="m29 36a2 2 0 0 1 -2-2v-1h-1v4h4v-1z"/><path d="m25 36a2 2 0 0 1 -2-2v-1h-1v4h4v-1z"/><path d="m21 36a2 2 0 0 1 -2-2v-1h-1v4h4v-1z"/><path d="m45 40a2 2 0 0 1 -2-2v-1h-1v4h8v-1z"/><path d="m41 40a2 2 0 0 1 -2-2v-1h-1v4h4v-1z"/><path d="m37 40a2 2 0 0 1 -2-2v-1h-1v4h4v-1z"/><path d="m33 40a2 2 0 0 1 -2-2v-1h-1v4h4v-1z"/><path d="m29 40a2 2 0 0 1 -2-2v-1h-1v4h4v-1z"/><path d="m25 40a2 2 0 0 1 -2-2v-1h-1v4h4v-1z"/><path d="m21 40a2 2 0 0 1 -2-2v-1h-1v4h4v-1z"/></g><path d="m17 40a2 2 0 0 1 -2-2v-1h-1v4h4v-1z" fill="#2d72bc"/><path d="m17 36a2 2 0 0 1 -2-2v-1h-1v4h4v-1z" fill="#2d72bc"/><path d="m25 44a2 2 0 0 1 -2-2v-1h-1v4h20v-1z" fill="#4891d3"/><path d="m49 44a2 2 0 0 1 -2-2v-1h-1v4h4v-1z" fill="#4891d3"/><path d="m45 44a2 2 0 0 1 -2-2v-1h-1v4h4v-1z" fill="#4891d3"/><path d="m21 44a2 2 0 0 1 -2-2v-1h-1v4h4v-1z" fill="#4891d3"/><path d="m17 44a2 2 0 0 1 -2-2v-1h-1v4h4v-1z" fill="#2d72bc"/><path d="m18 45h1.174a15.9 15.9 0 0 1 -1.036-4h-.138z" fill="#2d72bc"/><path d="m18.138 41a16.094 16.094 0 0 1 -.138-2v2z" fill="#2d72bc"/></g><rect fill="#4891d3" height="6" rx="2" width="10" x="27" y="50"/><path d="m48 55h4v2h-4z" fill="#a1d51c"/><path d="m7 23 1 4h48l1-4z" fill="#2d72bc"/><path d="m34 55a15.907 15.907 0 0 1 -8-2.158v4.158h12v-2z" fill="#4891d3"/><path d="m34 55a15.862 15.862 0 0 1 -7-1.628v.628a2 2 0 0 0 2 2h6a1.994 1.994 0 0 0 1.723-1z" fill="#2d72bc"/></g></g><g id="Outline_copy" data-name="Outline copy"><g fill="#1f2d51"><path d="m26 48a1 1 0 0 0 -1 1v8a1 1 0 0 0 1 1h12a1 1 0 0 0 1-1v-8a1 1 0 0 0 -1-1zm11 8h-10v-6h4v2a1 1 0 0 0 2 0v-2h4z"/><path d="m14 36a1 1 0 0 0 -1 1v8a1 1 0 0 0 1 1h36a1 1 0 0 0 1-1v-12a1 1 0 0 0 -1-1h-36a1 1 0 0 0 0 2h3v2zm31-2v2h-6v-2zm4 6h-6v-2h6zm-10-2h2v2h-2zm-2 2h-2v-2h2zm-4 0h-2v-2h2zm-4 0h-2v-2h2zm-4 0h-2v-2h2zm-4 0h-2v-2h2zm-4-2v2h-2v-2zm-2 4h2v2h-2zm4 0h2v2h-2zm4 0h18v2h-18zm20 0h2v2h-2zm6 2h-2v-2h2zm0-8h-2v-2h2zm-12 0h-2v-2h2zm-4 0h-2v-2h2zm-4 0h-2v-2h2zm-4 0h-2v-2h2zm-4 0h-2v-2h2z"/><path d="m47 53v4a1 1 0 0 0 1 1h4a1 1 0 0 0 1-1v-4a1 1 0 0 0 -1-1h-4a1 1 0 0 0 -1 1zm2 1h2v2h-2z"/><circle cx="32" cy="11" r="1"/><path d="m61.788 6.385a1 1 0 0 0 -.788-.385h-48a1 1 0 0 0 0 2h2.586l11.707 11.707a1 1 0 0 0 1.414-1.414l-10.293-10.293h20.206l13.76 12.231a1 1 0 1 0 1.329-1.494l-12.079-10.737h18.089l-3.5 14h-4.839l-13.215-11.747a1 1 0 1 0 -1.33 1.494l11.535 10.253h-40.589l-3.5-14h4.719a1 1 0 0 0 0-2h-6a1 1 0 0 0 -.97 1.242l4.97 19.881v7.877a1 1 0 0 0 2 0v-7h46v17a1 1 0 0 0 2 0v-17.877l4.97-19.881a1 1 0 0 0 -.182-.857zm-52.975 19.615-.413-2h47.2l-.417 2z"/><path d="m56 48a1 1 0 0 0 -1 1v11h-46v-21a1 1 0 0 0 -2 0v22a1 1 0 0 0 1 1h48a1 1 0 0 0 1-1v-12a1 1 0 0 0 -1-1z"/></g></g></g></svg>