<svg height="512" viewBox="0 0 64 64" width="512" xmlns="http://www.w3.org/2000/svg"><g id="Fill_Outline" data-name="Fill Outline"><g id="Colors"><g><g><path d="m3 3h40v58h-40z" fill="#d0d8da"/><path d="m7 7h32v50h-32z" fill="#4891d3"/><path d="m7 15h32v8h-32z" fill="#57b7eb"/><path d="m7 7h32v8h-32z" fill="#57b7eb"/><path d="m7 31h32v8h-32z" fill="#57b7eb"/><path d="m7 23h32v8h-32z" fill="#57b7eb"/><path d="m7 39h32v8h-32z" fill="#57b7eb"/><g fill="#4891d3"><path d="m10 39h-3v8h32v-4h-25a4 4 0 0 1 -4-4z"/><path d="m10 31h-3v8h32v-4h-25a4 4 0 0 1 -4-4z"/><path d="m10 23h-3v8h32v-4h-25a4 4 0 0 1 -4-4z"/><path d="m10 15h-3v8h32v-4h-25a4 4 0 0 1 -4-4z"/><path d="m10 7h-3v8h32v-4h-25a4 4 0 0 1 -4-4z"/></g></g><g><g fill="#57b7eb"><path d="m43 53h18v8h-18z"/><path d="m43 21h18v8h-18z"/><path d="m43 29h18v8h-18z"/><path d="m43 37h18v8h-18z"/><path d="m43 45h18v8h-18z"/></g><path d="m46 21h-3v8h18v-4h-11a4 4 0 0 1 -4-4z" fill="#4891d3"/><path d="m46 29h-3v8h18v-4h-11a4 4 0 0 1 -4-4z" fill="#4891d3"/><path d="m46 37h-3v8h18v-4h-11a4 4 0 0 1 -4-4z" fill="#4891d3"/><path d="m46 45h-3v8h18v-4h-11a4 4 0 0 1 -4-4z" fill="#4891d3"/><path d="m46 53h-3v8h18v-4h-11a4 4 0 0 1 -4-4z" fill="#4891d3"/></g><g fill="#2d72bc"><path d="m35 47v10h2v-6a2 2 0 0 1 2-2v-2z"/><path d="m31 47v10h2v-6a2 2 0 0 1 2-2v-2z"/><path d="m27 47v10h2v-6a2 2 0 0 1 2-2v-2z"/><path d="m23 47v10h2v-6a2 2 0 0 1 2-2v-2z"/><path d="m19 47v10h2v-6a2 2 0 0 1 2-2v-2z"/><path d="m15 47v10h2v-6a2 2 0 0 1 2-2v-2z"/><path d="m11 47v10h2v-6a2 2 0 0 1 2-2v-2z"/><path d="m7 47v10h2v-6a2 2 0 0 1 2-2v-2z"/></g></g></g><g id="Outline_copy" data-name="Outline copy"><g fill="#1f2d51"><circle cx="33" cy="11" r="1"/><circle cx="29" cy="11" r="1"/><path d="m25 10h-6a1 1 0 0 0 0 2h6a1 1 0 0 0 0-2z"/><circle cx="15" cy="11" r="1"/><circle cx="11" cy="11" r="1"/><path d="m29 20a1 1 0 0 0 0-2h-7a1 1 0 0 0 0 2z"/><path d="m18 20a1 1 0 0 0 0-2h-3a1 1 0 0 0 0 2z"/><circle cx="11" cy="19" r="1"/><circle cx="33" cy="19" r="1"/><path d="m19 28h6a1 1 0 0 0 0-2h-6a1 1 0 0 0 0 2z"/><circle cx="33" cy="27" r="1"/><circle cx="29" cy="27" r="1"/><path d="m11 28h4a1 1 0 0 0 0-2h-4a1 1 0 0 0 0 2z"/><circle cx="33" cy="35" r="1"/><circle cx="29" cy="35" r="1"/><circle cx="15" cy="35" r="1"/><circle cx="11" cy="35" r="1"/><circle cx="19" cy="35" r="1"/><path d="m25 34h-2a1 1 0 0 0 0 2h2a1 1 0 0 0 0-2z"/><path d="m11 42a1 1 0 0 0 0 2h4a1 1 0 0 0 0-2z"/><path d="m19 42a1 1 0 0 0 0 2h6a1 1 0 0 0 0-2z"/><circle cx="33" cy="43" r="1"/><circle cx="29" cy="43" r="1"/><path d="m3 29a1 1 0 0 0 1-1v-24h30a1 1 0 0 0 0-2h-31a1 1 0 0 0 -1 1v25a1 1 0 0 0 1 1z"/><path d="m40 39v-32a1 1 0 0 0 -1-1h-32a1 1 0 0 0 -1 1v8a1 1 0 0 0 1 1h31v6h-30v-3a1 1 0 0 0 -2 0v38a1 1 0 0 0 1 1h32a1 1 0 0 0 1-1v-14a1 1 0 0 0 -2 0v3h-30v-6h31a1 1 0 0 0 1-1zm-32-25v-6h30v6zm30 10v6h-30v-6zm-23 30a1 1 0 0 0 1-1v-5h2v8h-6v-8h2v5a1 1 0 0 0 1 1zm11 2h-2v-8h2zm2-8h2v8h-2zm-6 8h-2v-8h2zm16 0h-2v-5a1 1 0 0 0 -2 0v5h-2v-8h6zm-28-8v8h-2v-8zm-2-16h30v6h-30z"/><path d="m61 20h-3v-5a11.013 11.013 0 0 0 -11-11h-3v-1a1 1 0 0 0 -1-1h-5a1 1 0 0 0 0 2h4v56h-38v-28a1 1 0 0 0 -2 0v29a1 1 0 0 0 1 1h40a1 1 0 0 0 1-1v-47h2a2 2 0 0 1 2 2v4h-1a1 1 0 0 0 0 2h13v6h-13a1 1 0 0 0 0 2h13v6h-13a1 1 0 0 0 0 2h13v6h-13a1 1 0 0 0 0 2h13v6h-13a1 1 0 0 0 0 2h13v6h-13a1 1 0 0 0 0 2h14a1 1 0 0 0 1-1v-40a1 1 0 0 0 -1-1zm-14-14a9.01 9.01 0 0 1 9 9v5h-2v-5a7.008 7.008 0 0 0 -7-7h-3v-2zm-1 6h-2v-2h3a5.006 5.006 0 0 1 5 5v5h-2v-4a4 4 0 0 0 -4-4z"/><path d="m47 26h6a1 1 0 0 0 0-2h-6a1 1 0 0 0 0 2z"/><path d="m47 34h6a1 1 0 0 0 0-2h-6a1 1 0 0 0 0 2z"/><circle cx="57" cy="25" r="1"/><circle cx="57" cy="33" r="1"/><circle cx="47" cy="41" r="1"/><path d="m53 42a1 1 0 0 0 0-2h-2a1 1 0 0 0 0 2z"/><circle cx="57" cy="41" r="1"/><path d="m57 50a1 1 0 0 0 0-2h-6a1 1 0 0 0 0 2z"/><path d="m47 58h2a1 1 0 0 0 0-2h-2a1 1 0 0 0 0 2z"/><circle cx="47" cy="49" r="1"/><circle cx="53" cy="57" r="1"/><circle cx="57" cy="57" r="1"/></g></g></g></svg>